<svg width="24" height="24" viewBox="0 0 24 24" fill="none" xmlns="http://www.w3.org/2000/svg">
<path fill-rule="evenodd" clip-rule="evenodd" d="M17 8H3V19H18V16H19C21.2091 16 23 14.2091 23 12C23 9.79086 21.2091 8 19 8H18H17ZM18 10V14H19C20.1046 14 21 13.1046 21 12C21 10.8954 20.1046 10 19 10H18Z" fill="#65D80D"/>
<path fill-rule="evenodd" clip-rule="evenodd" d="M8.5 3C7.94772 3 7.5 3.44772 7.5 4C7.5 4.55228 7.94772 5 8.5 5V7C6.84315 7 5.5 5.65685 5.5 4C5.5 2.34315 6.84315 1 8.5 1V3ZM22 21V23H1V21H22ZM13.5 4C13.5 3.44772 13.9477 3 14.5 3V1C12.8431 1 11.5 2.34315 11.5 4C11.5 5.65685 12.8431 7 14.5 7V5C13.9477 5 13.5 4.55228 13.5 4Z" fill="#3DA700"/>
</svg>
