<svg width="24" height="24" viewBox="0 0 24 24" fill="none" xmlns="http://www.w3.org/2000/svg">
<path d="M12 1C5.92487 1 1 5.92487 1 12C1 18.0751 5.92487 23 12 23C18.0751 23 23 18.0751 23 12C23 5.92487 18.0751 1 12 1Z" fill="#65D80D"/>
<path fill-rule="evenodd" clip-rule="evenodd" d="M11.1143 4.95069L20.4446 4.95068C21.719 6.47563 22.588 8.351 22.8861 10.4112V13.5891C22.2744 17.817 19.258 21.2666 15.2685 22.5064V14.0891L11.1143 10.3397V4.95069ZM9.41875 19.5727V22.6956C5.64087 21.7872 2.62213 18.9292 1.48633 15.2454H9.41875V19.5727Z" fill="#3DA700"/>
</svg>
